<?xml version="1.0" standalone="no"?>
<!DOCTYPE svg PUBLIC "-//W3C//DTD SVG 20010904//EN"
 "http://www.w3.org/TR/2001/REC-SVG-20010904/DTD/svg10.dtd">
<svg version="1.0" xmlns="http://www.w3.org/2000/svg"
 width="95.000000pt" height="95.000000pt" viewBox="0 0 95.000000 95.000000"
 preserveAspectRatio="xMidYMid meet">
<metadata>
Created by potrace 1.14, written by Peter Selinger 2001-2017
</metadata>
<g transform="translate(0.000000,95.000000) scale(0.100000,-0.100000)"
fill="#000000" stroke="none">
<path d="M255 921 c-47 -21 -99 -70 -121 -114 -9 -16 -19 -56 -21 -89 -7 -75
15 -135 69 -188 52 -51 110 -73 182 -68 l55 3 -23 -25 c-84 -90 11 -236 126
-192 27 10 27 10 13 -11 -35 -51 1 -117 64 -117 20 0 44 6 51 12 13 11 13 11
3 -2 -30 -34 5 -87 52 -78 16 4 25 1 25 -8 0 -21 33 -34 54 -22 12 7 17 7 12
0 -3 -5 2 -13 11 -16 9 -4 20 -1 24 6 9 15 -9 40 -23 32 -5 -3 -12 3 -15 15
-5 19 -21 26 -47 22 -5 -1 -6 6 -2 15 9 22 -21 54 -50 54 -20 0 -22 4 -17 33
7 47 -27 87 -74 87 -35 0 -35 0 -19 25 21 32 20 89 -1 126 -21 35 -76 63 -112
56 -23 -4 -24 -3 -7 7 101 60 146 163 121 276 -8 38 -42 96 -71 122 -63 56
-183 74 -259 39z"/>
</g>
</svg>
